<svg xmlns="http://www.w3.org/2000/svg" viewBox="0 0 100 100">
  <path d="M18 100 Q50 78 82 100 Z" fill="#6b1f18"/>
  <path d="M46 84 L46 100 M54 84 L54 100" stroke="#c9a24a" stroke-width="1.6" fill="none" opacity="0.7"/>
  <rect x="42" y="66" width="16" height="18" rx="6" fill="#cf9d68"/>
  <ellipse cx="50" cy="45" rx="25" ry="25" fill="#cf9d68"/>
  <ellipse cx="24" cy="46" rx="4" ry="5.9" fill="#cf9d68"/>
  <ellipse cx="76" cy="46" rx="4" ry="5.9" fill="#cf9d68"/>
  <path d="M23 32 Q20 15 50 13 Q80 15 77 32 Q77 20 50 18 Q23 20 23 32 Z" fill="#3d1410"/>
  <path d="M31 21 L34 25 M39 19 L41 24 M50 18 L50 23 M61 19 L59 24 M69 21 L66 25" stroke="#c9a24a" stroke-width="1.1" fill="none" stroke-linecap="round" opacity="0.8"/>
  <path d="M38 39.5 Q42 37.5 46 39" stroke="#3d1410" stroke-width="1.4" fill="none" stroke-linecap="round"/>
  <path d="M62 39 Q58 37.5 54 39.5" stroke="#3d1410" stroke-width="1.4" fill="none" stroke-linecap="round"/>
  <ellipse cx="42.5" cy="45" rx="3.1" ry="3.2" fill="#fffaf0"/>
  <circle cx="43" cy="45.4" r="1.8" fill="#2a1810"/>
  <ellipse cx="57.5" cy="45" rx="3.1" ry="3.2" fill="#fffaf0"/>
  <circle cx="57" cy="45.4" r="1.8" fill="#2a1810"/>
  <path d="M49 47 Q47.3 53 50 55 Q51.7 55 50.3 53" stroke="#a8763f" stroke-width="1.2" fill="none" stroke-linecap="round"/>
  <path d="M42 63 Q50 61 58 63" stroke="#2a1810" stroke-width="1.6" fill="none" stroke-linecap="round"/>
  <path d="M39 56 Q37 61 43 64.5 Q50 66.5 57 64.5 Q63 61 61 56 Q62 60 50 59.5 Q38 60 39 56 Z" fill="#3d1410"/>
</svg>
