<svg xmlns="http://www.w3.org/2000/svg" viewBox="0 0 100 100">
  <path d="M18 100 Q50 78 82 100 Z" fill="#3a3226"/>
  <rect x="42" y="66" width="16" height="18" rx="6" fill="#8a6238"/>
  <ellipse cx="50" cy="46" rx="25" ry="27" fill="#8a6238"/>
  <ellipse cx="24" cy="47" rx="4.1" ry="6.2" fill="#8a6238"/>
  <ellipse cx="76" cy="47" rx="4.1" ry="6.2" fill="#8a6238"/>
  <path d="M23 32 Q20 14 50 12 Q80 14 77 32 Q77 20 50 18 Q23 20 23 32 Z" fill="#100c0a"/>
  <path d="M37 38 Q42 35 47 38" stroke="#100c0a" stroke-width="2" fill="none" stroke-linecap="round"/>
  <path d="M53 38 Q58 35 63 38" stroke="#100c0a" stroke-width="2" fill="none" stroke-linecap="round"/>
  <ellipse cx="42" cy="45" rx="3.3" ry="3.7" fill="#fffaf0"/>
  <circle cx="42.5" cy="45.5" r="1.9" fill="#1a1108"/>
  <ellipse cx="58" cy="45" rx="3.3" ry="3.7" fill="#fffaf0"/>
  <circle cx="57.5" cy="45.5" r="1.9" fill="#1a1108"/>
  <path d="M49 47 Q47 54 50 56 Q52 56 51 54" stroke="#6b4426" stroke-width="1.3" fill="none" stroke-linecap="round"/>
  <path d="M36 58 Q50 54.5 64 58 L64 66 Q50 70 36 66 Z" fill="#100c0a"/>
  <path d="M42 62 Q50 65 58 62" stroke="#3a2818" stroke-width="1.5" fill="none" stroke-linecap="round"/>
</svg>
