<svg xmlns="http://www.w3.org/2000/svg" viewBox="0 0 100 100">
  <path d="M16 92 Q12 55 20 34 Q18 50 22 68 Q24 84 30 94 Q22 94 16 92 Z" fill="#120d0a"/>
  <path d="M78 90 Q82 62 76 40 Q80 56 78 71 Q77 83 72 91 Q75 91 78 90 Z" fill="#120d0a"/>
  <path d="M20 62 Q26 66 22 72" stroke="#2a1f18" stroke-width="1.2" fill="none" stroke-linecap="round" opacity="0.6"/>
  <path d="M76 60 Q70 64 74 70" stroke="#2a1f18" stroke-width="1.2" fill="none" stroke-linecap="round" opacity="0.6"/>
  <path d="M18 100 Q50 76 82 100 Z" fill="#a85d6b"/>
  <rect x="42" y="66" width="16" height="18" rx="6" fill="#e8c9a0"/>
  <ellipse cx="50" cy="45" rx="19.5" ry="22" fill="#e8c9a0"/>
  <ellipse cx="29.5" cy="46" rx="3.6" ry="5.6" fill="#e8c9a0"/>
  <ellipse cx="70.5" cy="46" rx="3.6" ry="5.6" fill="#e8c9a0"/>
  <path d="M27 32 Q24 14 50 12 Q76 14 73 32 Q73 19 50 17 Q27 19 27 32 Z" fill="#120d0a"/>
  <path d="M36 37.5 Q42 33.5 48 37" stroke="#120d0a" stroke-width="1.3" fill="none" stroke-linecap="round"/>
  <path d="M64 37.5 Q58 33.5 52 37" stroke="#120d0a" stroke-width="1.3" fill="none" stroke-linecap="round"/>
  <ellipse cx="41.5" cy="44" rx="3.3" ry="3.8" fill="#fffaf0"/>
  <circle cx="42" cy="44.5" r="1.9" fill="#2a1810"/>
  <ellipse cx="58.5" cy="44" rx="3.3" ry="3.8" fill="#fffaf0"/>
  <circle cx="58" cy="44.5" r="1.9" fill="#2a1810"/>
  <path d="M49 46 Q47.3 52.5 50 54.5 Q51.7 54.5 50.3 52.5" stroke="#c99a6b" stroke-width="1.1" fill="none" stroke-linecap="round"/>
  <path d="M42 60.5 Q48 62.5 52 61 L58 59.5" stroke="#8a4a2f" stroke-width="1.5" fill="none" stroke-linecap="round"/>
</svg>
