<svg xmlns="http://www.w3.org/2000/svg" viewBox="0 0 100 100">
  <path d="M18 100 Q50 79 82 100 Z" fill="#9c7a4a"/>
  <rect x="42" y="66" width="16" height="18" rx="6" fill="#c69368"/>
  <ellipse cx="50" cy="45" rx="22" ry="24" fill="#c69368"/>
  <ellipse cx="27" cy="46" rx="3.5" ry="5.3" fill="#c69368"/>
  <ellipse cx="73" cy="46" rx="3.5" ry="5.3" fill="#c69368"/>
  <path d="M27 29 Q26 17 50 16 Q74 17 73 29 Q73 22 50 20.5 Q27 22 27 29 Z" fill="#4a3018"/>
  <path d="M27 24 L73 24" stroke="#4a3018" stroke-width="1" fill="none" opacity="0.4"/>
  <path d="M37 38.5 Q42 37 46.5 38.3" stroke="#4a3018" stroke-width="1.3" fill="none" stroke-linecap="round"/>
  <path d="M63 38.5 Q58 37 53.5 38.3" stroke="#4a3018" stroke-width="1.3" fill="none" stroke-linecap="round"/>
  <ellipse cx="42" cy="45" rx="3" ry="3.2" fill="#fffaf0"/>
  <circle cx="42" cy="45" r="1.7" fill="#2a1810"/>
  <ellipse cx="58" cy="45" rx="3" ry="3.2" fill="#fffaf0"/>
  <circle cx="58" cy="45" r="1.7" fill="#2a1810"/>
  <path d="M49.3 47 Q47.6 52.5 50.1 54.5 Q51.7 54.5 50.4 52.5" stroke="#a8763f" stroke-width="1.2" fill="none" stroke-linecap="round"/>
  <path d="M43 61 Q50 63 57 61" stroke="#8a5a3a" stroke-width="1.4" fill="none" stroke-linecap="round"/>
</svg>
