<svg xmlns="http://www.w3.org/2000/svg" viewBox="0 0 100 100">
  <path d="M18 100 Q50 78 82 100 Z" fill="#3d2a1f"/>
  <path d="M31 81 L60 100" stroke="#c9a24a" stroke-width="3.2" fill="none" stroke-linecap="round"/>
  <rect x="42" y="66" width="16" height="18" rx="6" fill="#cba173"/>
  <ellipse cx="50" cy="45" rx="21.5" ry="27" fill="#cba173"/>
  <ellipse cx="27.5" cy="46" rx="3.5" ry="5.5" fill="#cba173"/>
  <ellipse cx="72.5" cy="46" rx="3.5" ry="5.5" fill="#cba173"/>
  <path d="M25 26 Q22 13 50 11 Q78 13 75 26 Q75 17 50 15 Q25 17 25 26 Z" fill="#4a3018"/>
  <path d="M36 39 Q42 38 47 39.5" stroke="#4a3018" stroke-width="1.4" fill="none" stroke-linecap="round"/>
  <path d="M64 39 Q58 38 53 39.5" stroke="#4a3018" stroke-width="1.4" fill="none" stroke-linecap="round"/>
  <path d="M38 42.3 Q42 40.8 46 42.3" stroke="#2a1a10" stroke-width="0.9" fill="none" stroke-linecap="round" opacity="0.5"/>
  <path d="M62 42.3 Q58 40.8 54 42.3" stroke="#2a1a10" stroke-width="0.9" fill="none" stroke-linecap="round" opacity="0.5"/>
  <ellipse cx="42" cy="45" rx="3" ry="3.3" fill="#fffaf0"/>
  <circle cx="41.7" cy="44.3" r="1.7" fill="#2a1810"/>
  <ellipse cx="58" cy="45" rx="3" ry="3.3" fill="#fffaf0"/>
  <circle cx="58.3" cy="44.3" r="1.7" fill="#2a1810"/>
  <path d="M49 47 Q47.3 53.5 50 55.5 Q51.7 55.5 50.3 53.5" stroke="#a8763f" stroke-width="1.2" fill="none" stroke-linecap="round"/>
  <path d="M42 61.5 Q50 62.5 58 61.5" stroke="#5a3a20" stroke-width="1.3" fill="none" stroke-linecap="round"/>
  <path d="M33 55 Q30 62 33 70 L38 90 Q50 96 62 90 L67 70 Q70 62 67 55 Q68 60 50 60 Q32 60 33 55 Z" fill="#4a3018"/>
  <path d="M50 61 L50 89" stroke="#2a1a10" stroke-width="0.8" fill="none" opacity="0.5"/>
</svg>
