<svg xmlns="http://www.w3.org/2000/svg" viewBox="0 0 100 100">
  <path d="M16 100 Q50 74 84 100 Z" fill="#75694f"/>
  <rect x="42" y="66" width="16" height="18" rx="6" fill="#c9985f"/>
  <ellipse cx="50" cy="45" rx="24" ry="29" fill="#c9985f"/>
  <ellipse cx="25" cy="47" rx="3.8" ry="5.9" fill="#c9985f"/>
  <ellipse cx="75" cy="47" rx="3.8" ry="5.9" fill="#c9985f"/>
  <path d="M27 33 Q26 17 50 15 Q74 17 73 33 Q72 24 50 23 Q28 24 27 33 Z" fill="#b3ac9e"/>
  <path d="M36 30 Q50 27.5 64 30" stroke="#a8794a" stroke-width="0.8" fill="none" stroke-linecap="round" opacity="0.5"/>
  <path d="M38 34 Q50 32 62 34" stroke="#a8794a" stroke-width="0.8" fill="none" stroke-linecap="round" opacity="0.4"/>
  <path d="M37 40 Q42 37.5 46 40" stroke="#8f887b" stroke-width="1.8" fill="none" stroke-linecap="round"/>
  <path d="M54 40 Q58 37.5 63 40" stroke="#8f887b" stroke-width="1.8" fill="none" stroke-linecap="round"/>
  <ellipse cx="42" cy="45.5" rx="3" ry="3.3" fill="#fffaf0"/>
  <circle cx="42" cy="46.1" r="1.8" fill="#3d2a1a"/>
  <ellipse cx="58" cy="45.5" rx="3" ry="3.3" fill="#fffaf0"/>
  <circle cx="58" cy="46.1" r="1.8" fill="#3d2a1a"/>
  <path d="M39 50 Q42 51 45 50" stroke="#a8794a" stroke-width="0.7" fill="none" stroke-linecap="round" opacity="0.5"/>
  <path d="M55 50 Q58 51 61 50" stroke="#a8794a" stroke-width="0.7" fill="none" stroke-linecap="round" opacity="0.5"/>
  <path d="M49 47.5 Q46.5 55 50 58 Q52.5 58 51 55" stroke="#a8763f" stroke-width="1.3" fill="none" stroke-linecap="round"/>
  <path d="M28 50 Q24 72 32 86 Q40 98 50 99 Q60 98 68 86 Q76 72 72 50 Q73 61 50 59 Q27 61 28 50 Z" fill="#d6d0c4"/>
  <ellipse cx="50" cy="62" rx="8" ry="3.2" fill="#d6d0c4"/>
  <path d="M44 66 Q50 63.5 56 66" stroke="#6b5d48" stroke-width="1.5" fill="none" stroke-linecap="round"/>
</svg>
