<svg xmlns="http://www.w3.org/2000/svg" viewBox="0 0 100 100">
  <path d="M17 100 Q50 80 83 100 Z" fill="#6b3a2a"/>
  <rect x="42" y="66" width="16" height="18" rx="6" fill="#c4915f"/>
  <ellipse cx="50" cy="45" rx="21" ry="25" fill="#c4915f"/>
  <ellipse cx="27.5" cy="46.5" rx="3.4" ry="5.3" fill="#c4915f"/>
  <ellipse cx="72.5" cy="46.5" rx="3.4" ry="5.3" fill="#c4915f"/>
  <path d="M24 31 Q20 15 38 10 Q50 6 63 11 Q80 16 76 31 Q75 19 55 16 Q50 20 45 16 Q28 18 24 31 Z" fill="#3a2415"/>
  <path d="M35 37.5 L47 40.5" stroke="#241408" stroke-width="2" fill="none" stroke-linecap="round"/>
  <path d="M65 37.5 L53 40.5" stroke="#241408" stroke-width="2" fill="none" stroke-linecap="round"/>
  <ellipse cx="42" cy="45.5" rx="3" ry="3.2" fill="#fffaf0"/>
  <circle cx="42" cy="45.5" r="1.8" fill="#1a1108"/>
  <ellipse cx="58" cy="45.5" rx="3" ry="3.2" fill="#fffaf0"/>
  <circle cx="58" cy="45.5" r="1.8" fill="#1a1108"/>
  <path d="M49 47 Q47.2 53.5 50 55.5 Q52.8 55.5 51 53.5" stroke="#8a5a30" stroke-width="1.2" fill="none" stroke-linecap="round"/>
  <path d="M41 62 Q50 60.8 59 62" stroke="#2a1a10" stroke-width="1.6" fill="none" stroke-linecap="round"/>
  <path d="M32 55 Q29 63 34 70 Q50 74 66 70 Q71 63 68 55 Q69 60 50 59.5 Q31 60 32 55 Z" fill="#3a2415"/>
  <path d="M38 64 L46 64 M54 64 L62 64 M40 69 L48 69 M52 69 L60 69" stroke="#221208" stroke-width="0.9" fill="none" stroke-linecap="round" opacity="0.55"/>
</svg>
