<svg xmlns="http://www.w3.org/2000/svg" viewBox="0 0 100 100">
  <path d="M18 100 Q50 76 82 100 Z" fill="#9c8a6b"/>
  <rect x="42" y="66" width="16" height="18" rx="6" fill="#e8c9a0"/>
  <ellipse cx="50" cy="45" rx="22" ry="26.5" fill="#e8c9a0"/>
  <ellipse cx="25" cy="46" rx="3.4" ry="5.3" fill="#e8c9a0"/>
  <ellipse cx="75" cy="46" rx="3.4" ry="5.3" fill="#e8c9a0"/>
  <path d="M27 33 Q25 20 50 18 Q75 20 73 33 Q73 24 50 23 Q27 24 27 33 Z" fill="#b0a99c"/>
  <path d="M14 96 Q11 45 24 26 Q34 13 50 13 Q66 13 76 26 Q89 45 86 96 Q79 66 75 44 Q71 24 50 22 Q29 24 25 44 Q21 66 14 96 Z" fill="#f6ecd4"/>
  <path d="M38 39 Q42 37 46 39" stroke="#8a8276" stroke-width="1.3" fill="none" stroke-linecap="round"/>
  <path d="M54 39 Q58 37 62 39" stroke="#8a8276" stroke-width="1.3" fill="none" stroke-linecap="round"/>
  <ellipse cx="42" cy="44.5" rx="3.1" ry="3.6" fill="#fffaf0"/>
  <circle cx="42.5" cy="45" r="1.8" fill="#3d2a1a"/>
  <ellipse cx="58" cy="44.5" rx="3.1" ry="3.6" fill="#fffaf0"/>
  <circle cx="57.5" cy="45" r="1.8" fill="#3d2a1a"/>
  <path d="M49 46.5 Q47.3 53 50 55 Q51.7 55 50.3 53" stroke="#c99a6b" stroke-width="1.1" fill="none" stroke-linecap="round"/>
  <path d="M42 61 Q50 67 58 61" stroke="#a8654a" stroke-width="1.6" fill="none" stroke-linecap="round"/>
</svg>
