<svg xmlns="http://www.w3.org/2000/svg" viewBox="0 0 100 100">
  <path d="M17 100 Q50 79 83 100 Z" fill="#9a6a2a"/>
  <rect x="42" y="66" width="16" height="18" rx="6" fill="#c7a077"/>
  <ellipse cx="50" cy="45" rx="21" ry="25.5" fill="#c7a077"/>
  <ellipse cx="28" cy="46" rx="3.4" ry="5.3" fill="#c7a077"/>
  <ellipse cx="72" cy="46" rx="3.4" ry="5.3" fill="#c7a077"/>
  <path d="M27 29 Q23 12 40 10 Q50 8 60 10 Q77 12 73 29 Q72 18 50 16 Q28 18 27 29 Z" fill="#3a2818"/>
  <path d="M34 35.5 Q41 32 48 35" stroke="#241810" stroke-width="1.4" fill="none" stroke-linecap="round"/>
  <path d="M66 35.5 Q59 32 52 35" stroke="#241810" stroke-width="1.4" fill="none" stroke-linecap="round"/>
  <ellipse cx="41.5" cy="45.5" rx="4.4" ry="5.2" fill="#fffaf0"/>
  <circle cx="41.5" cy="45.5" r="2.5" fill="#1a1108"/>
  <ellipse cx="58.5" cy="45.5" rx="4.4" ry="5.2" fill="#fffaf0"/>
  <circle cx="58.5" cy="45.5" r="2.5" fill="#1a1108"/>
  <path d="M49 48.5 Q47.2 55 50 57 Q52.8 57 51 55" stroke="#a8763f" stroke-width="1.1" fill="none" stroke-linecap="round"/>
  <path d="M43 63.5 Q50 62.5 57 63.5" stroke="#2a1a10" stroke-width="1.4" fill="none" stroke-linecap="round"/>
  <path d="M33 56 Q30 63 34 69 Q50 72 66 69 Q70 63 67 56 Q68 60 50 59.5 Q32 60 33 56 Z" fill="#3a2818"/>
</svg>
